<svg xmlns="http://www.w3.org/2000/svg" version="1.1" xlink="http://www.w3.org/1999/xlink" xmlns:svgjs="http://svgjs.com/svgjs" width="100%" height="100%" viewBox="1.2269220352172852 6.012773036956787 29.77178955078125 23.56475257873535"><g fill="url(#SvgjsLinearGradient1000)"><circle cx="8" cy="14.34" r="1"></circle><path d="M28.353 10.732c-1.85-2.096-4.367-3.277-7.083-3.325l-2.647-.059c-.882-.793-1.98-1.251-3.157-1.213-.939.031-1.815.377-2.56.955-1.36-.793-3.086-1.199-4.679-1.045-4.333.413-7.017 3.636-7 8.47l.768 12.309a2.93 2.93 0 0 0 1.181 2.172 2.926 2.926 0 0 0 2.424.503c1.374-.32 2.34-1.677 2.248-3.158l-.307-4.914a7.757 7.757 0 0 0 2.006.109c.028-.002.055-.009.083-.012l.911 4.991c.299 1.636 1.677 2.823 3.277 2.823h.201c1.438 0 2.709-.953 3.165-2.372l.496-1.546a.765.765 0 0 1 .732-.535h.008l4.066.039a.766.766 0 0 1 .728.543l.45 1.461c.444 1.442 1.721 2.411 3.177 2.411 1.701 0 3.126-1.327 3.315-3.085l.78-7.266c.324-3.02-.618-6.029-2.583-8.257zM7.578 19.39a1.678 1.678 0 0 0-1.471.331c-.409.34-.625.84-.591 1.372l.335 5.374c.032.509-.278.986-.705 1.086a.932.932 0 0 1-.777-.16.933.933 0 0 1-.378-.692l-.766-12.25c-.012-3.761 1.881-6.099 5.191-6.414 1.046-.102 2.204.133 3.152.598-.068.115-.139.226-.2.348-.265.53.043 1.172.61 1.344l.042.013c.465.141.943-.092 1.168-.522.529-1.014 1.393-1.652 2.343-1.683 1.653-.054 3.057 1.695 3.129 3.9.072 2.204-1.214 4.042-2.868 4.096-.587.019-1.17-.2-1.673-.617-.366-.304-.877-.355-1.258-.07l-.032.024a.989.989 0 0 0-.034 1.547c.195.166.402.307.613.438-1.002 1.196-2.454 1.977-4.01 2.092a5.676 5.676 0 0 1-1.821-.154z"></path></g><defs><linearGradient gradientUnits="userSpaceOnUse" id="SvgjsLinearGradient1000" x1="2.7786812782287487" y1="31.129284858703627" x2="29.44695234298706" y2="4.46101379394531"><stop stop-color="#2250dd" offset="0.05"></stop><stop stop-color="#11286f" offset="0.95"></stop></linearGradient></defs></svg>
